<svg xmlns="http://www.w3.org/2000/svg">
    <symbol id="logo" viewBox="0 0 80 80">
        <path class="st0" d="M39.2,0c1.9,0,3.9,0.1,5.8,0.3c0,4.5,0,9.1,0,13.6c-0.4,0.3-0.8,0.7-0.9,1.2c-0.3-0.1-0.2-0.4-0.3-0.7
		c-0.1-0.5-0.5-0.8-0.8-1.1c0-2.5,0-4.9,0-7.4c0.4-0.3,0.9-0.7,0.9-1.3c0.1-0.9-0.7-1.8-1.7-1.8c-0.9,0-1.7,0.9-1.5,1.8
		c0,0.6,0.4,1,0.9,1.3c0,2.5,0,4.9,0,7.4c-0.1,0.1-0.3,0.2-0.4,0.3c-0.1-0.1-0.3-0.2-0.4-0.3c0-0.8,0-1.7,0-2.5c0-0.2,0-0.5-0.2-0.7
		c-0.4-0.5-0.9-0.9-1.3-1.3C39.2,5.9,39.2,2.9,39.2,0z"/>
        <path class="st0" d="M34.5,0.4c1.1-0.2,2.2-0.3,3.4-0.3c0,2.8,0,5.5,0,8.3c0,0.4-0.1,0.8,0.1,1.1c0.4,0.5,1,1,1.4,1.5
		c0,0.8,0,1.6,0,2.4c-0.5,0.3-0.9,0.9-1,1.5c-1,0-1.9,0.2-2.8,0.3c-0.1-0.6-0.6-1.1-1.1-1.4C34.5,9.3,34.5,4.8,34.5,0.4z"/>
        <path class="st0" d="M46.4,0.5c2.4,0.4,4.8,1,7.1,1.8c0,0.3,0,0.7,0,1c-1.8,1.8-3.5,3.6-5.3,5.3C48,8.8,47.8,9,47.9,9.3
		c0,1.9,0,3.7,0,5.6c-0.2,0.1-0.4,0.3-0.6,0.5c0-0.6-0.4-1.1-0.9-1.4C46.4,9.5,46.4,5,46.4,0.5z"/>
        <path class="st0" d="M29.1,1.5c1.3-0.4,2.6-0.7,4-0.9c0,4.4,0,8.9,0,13.3c-0.5,0.4-0.8,1-0.7,1.6c-0.2-0.2-0.4-0.4-0.6-0.6
		c0-3.5,0-7,0-10.5c0-0.4-0.3-0.7-0.6-0.9C30.5,2.9,29.8,2.2,29.1,1.5z"/>
        <path class="st0" d="M21.4,4.6c2-1,4-1.9,6.1-2.6c0.9,0.9,1.9,1.9,2.8,2.8c0,3.4,0,6.8,0,10.3c-0.7,0.4-1,1.2-0.8,2
		c-0.5,0.2-1,0.5-1.5,0.8c-0.2-0.4-0.5-0.7-0.8-0.9c0-2.1,0-4.1,0-6.2c0-0.3-0.1-0.5-0.3-0.7C25,8.2,23.2,6.4,21.4,4.6z"/>
        <path class="st0" d="M56.5,3.5C57,3.8,57.4,4,57.9,4.2c-0.8,0.7-1.5,1.5-2.3,2.2c-0.2,0.2-0.5,0.4-0.4,0.8c0,1.5,0,3,0,4.5
		c0,0.2-0.2,0.4-0.3,0.5c-1.2,1.2-2.4,2.4-3.6,3.6c-0.4-0.1-0.8-0.1-1.2,0.1c-0.2-0.4-0.5-0.7-0.8-0.9c0-1.8,0-3.6,0-5.3
		c1.7-1.8,3.5-3.5,5.3-5.3C55.3,4.5,56.1,4.2,56.5,3.5z"/>
        <path class="st0" d="M59.2,4.9c2.4,1.3,4.6,2.9,6.7,4.6c-1.5,0-2.9,0-4.4,0c-0.3,0-0.5,0.2-0.7,0.3c-2.4,2.4-4.8,4.8-7.2,7.2
		c-0.4-0.1-0.8-0.1-1.3,0c0-0.1,0-0.2,0-0.2c1.3-1.4,2.7-2.7,4-4c0.1-0.1,0.3-0.3,0.3-0.5c0.1-1.6-0.1-3.2,0.1-4.9
		C57.5,6.6,58.3,5.7,59.2,4.9z"/>
        <path class="st0" d="M14.9,8.9c1.7-1.3,3.4-2.5,5.3-3.6c1.9,1.9,3.8,3.7,5.6,5.6c0,2,0,4,0,6c-0.4,0.3-0.8,0.8-0.9,1.3
		c-0.1,0.5,0.2,0.9,0.4,1.3c-0.3-0.2-0.6-0.5-1-0.7c0-1.1,0-2.2,0-3.3c0-0.2-0.2-0.4-0.3-0.6c-1.3-1.3-2.6-2.6-3.9-3.9
		c0.2-0.6,0.1-1.4-0.5-1.8c-0.6-0.6-1.7-0.5-2.3,0.2c-0.6,0.7-0.4,1.8,0.3,2.3c0.4,0.3,0.9,0.3,1.4,0.2c1.3,1.3,2.6,2.6,3.9,3.9
		c0,1,0,2.1,0,3.1c-0.4,0.3-0.6,0.8-0.8,1.3c-2.5-2.4-4.8-4.8-7.3-7.2C14.9,11.6,14.9,10.3,14.9,8.9z"/>
        <path class="st0" d="M10.9,12.5c0.8-0.9,1.7-1.7,2.6-2.5c0,1.2-0.1,2.4,0.1,3.6c2.4,2.5,4.9,4.9,7.3,7.3c-0.3,0.6-0.2,1.4,0.2,1.9
		c-0.3-0.2-0.7-0.3-1.1-0.3c-1.2-1.1-2.3-2.3-3.4-3.4c0.3-1-0.4-2.1-1.4-2.1c-1.1-0.1-2.1,1.2-1.6,2.2c0.3,0.8,1.2,1.1,2,0.9
		c1.1,1.1,2.2,2.2,3.2,3.3c-0.3,0.7-0.1,1.6,0.5,2.1c-0.4-0.2-0.8-0.1-1.2-0.2c-2.4-2.4-4.8-4.8-7.2-7.1
		C10.9,16.4,10.9,14.5,10.9,12.5z"/>
        <path class="st0" d="M61.7,10.9c1.9,0,3.8,0,5.8,0c0.9,0.8,1.7,1.7,2.5,2.6c-1.1,0-2.2,0-3.3,0c-0.3,0-0.5,0.2-0.7,0.4
		c-2.3,2.3-4.6,4.6-6.9,6.9c-0.7-0.3-1.4-0.2-2,0.3c0.2-0.4,0.3-0.7,0.3-1.1c1.1-1.2,2.3-2.3,3.4-3.4c0.9,0.3,2.1-0.4,2.1-1.4
		c0.1-1-0.8-1.9-1.7-1.7c-1,0-1.7,1.2-1.4,2.1c-1.1,1.1-2.2,2.2-3.2,3.3c-0.7-0.3-1.6-0.2-2.1,0.5c0.1-0.4,0.2-0.8,0.1-1.3
		C56.9,15.7,59.3,13.3,61.7,10.9z"/>
        <path class="st0" d="M4.9,20.8c1.3-2.4,2.9-4.6,4.6-6.7c0,1.5,0,3,0,4.4c0,0.3,0.2,0.5,0.4,0.7c2.4,2.4,4.8,4.8,7.2,7.2
		c-0.1,0.4-0.1,0.9,0,1.3c-0.2,0-0.3,0-0.4-0.2c-1.2-1.2-2.5-2.5-3.7-3.7c-0.2-0.2-0.4-0.4-0.7-0.4c-1.6,0-3.2,0-4.8,0
		C6.6,22.5,5.7,21.7,4.9,20.8z"/>
        <path class="st0" d="M67,14.9c1.4,0,2.8,0,4.2,0c1.4,1.6,2.5,3.4,3.6,5.2c-1.9,1.9-3.7,3.7-5.6,5.6c-2,0-4,0-6.1,0
		c-0.3-0.4-0.7-0.8-1.3-0.9c-0.5-0.1-0.9,0.2-1.4,0.4c0.3-0.3,0.5-0.6,0.7-1c1.1,0,2.1,0,3.2,0c0.3,0,0.5-0.2,0.7-0.4
		c1.3-1.3,2.5-2.5,3.8-3.8c0.8,0.3,1.8-0.1,2.1-0.9c0.4-0.9-0.3-2.1-1.3-2.2c-1.1-0.2-2.1,1-1.8,2c-1.3,1.3-2.6,2.6-3.9,3.9
		c-1,0-1.9,0-2.9,0c-0.2,0-0.3-0.2-0.5-0.3c-0.3-0.3-0.6-0.4-1-0.5C62.1,19.7,64.6,17.3,67,14.9z"/>
        <path class="st0" d="M35.6,15.3c0.5,0,1.1,0,1.6,0c0,2.5,0,4.9,0,7.4c1.3,0,2.6,0,3.9,0c0-2.1,0-4.1,0-6.2c0-0.2,0-0.4,0.1-0.6
		c0.5,0.5,1.4,0.7,2,0.3c0.5-0.2,0.6-0.7,1-1c0,0.9,0.7,1.8,1.7,1.8c0,1.9,0,3.8,0,5.7c2.5,0.1,5.2,0.5,7.4,2
		c2.1,1.4,3.5,3.8,3.5,6.3c0.1,2.2-1,4.4-2.6,5.8c-1.1,1-2.4,1.6-3.8,2.1c1.6,0.4,3.2,0.9,4.5,1.9c2,1.5,3.2,3.9,3.2,6.4
		c0.1,1.9-0.6,3.8-1.7,5.3c-1.3,1.7-3.2,2.9-5.2,3.6c-1.7,0.5-3.4,0.8-5.1,0.9c0,2,0,3.9,0,5.9c-0.7,0.2-1.2,0.8-1.3,1.6
		c-1,0-2,0-2.9,0c-0.2-0.4-0.6-0.6-0.5-1.1c0-2.1,0-4.2,0-6.3c-1.3,0-2.6,0-3.9,0c0,2.1,0,4.2,0,6.3c-0.6,0.2-0.7,0.8-1.2,1.1
		c-0.1-0.5-0.2-1.1-0.7-1.4c-0.7-0.5-1.7-0.3-2.2,0.3c0-0.5-0.3-0.9-0.7-1.2c0-1.7,0-3.4,0-5c-2.6,0-5.3,0-7.9,0c0-1.6,0-3.2,0-4.8
		c1.4,0,2.7-0.1,4.1,0c0-8.3,0-16.6,0-25c-1.4,0-2.7,0-4.1,0c0-1.6,0-3.2,0-4.8c2.6,0,5.3,0,7.9,0c0-1.6,0-3.3,0-4.9
		c0-0.5,0.3-1,0.3-1.5c0.5,0.6,1.3,0.8,1.9,0.5C35.2,16.5,35.5,15.9,35.6,15.3 M37.1,28.3c0,2.8,0,5.6,0,8.4c1.6,0,3.2,0,4.8,0
		c1.6-0.1,3.4-0.2,4.8-1.2c1.9-1.4,2-4.6,0.2-6.1c-1.1-0.9-2.5-1-3.9-1.1C41.1,28.3,39.1,28.3,37.1,28.3 M37.1,41.8
		c0,2.5,0,4.9,0,7.4c0,0.6,0,1.2,0.1,1.7c0,0.3,0.3,0.7,0.6,0.7c0.8,0.1,1.6,0.1,2.4,0.1c1.7,0,3.3,0,5-0.4c2-0.5,3.5-2.5,3.6-4.5
		c0.1-1.3-0.3-2.8-1.4-3.7c-1.3-1.1-3.1-1.3-4.7-1.4C40.9,41.8,39,41.8,37.1,41.8z"/>
        <path class="st0" d="M75.4,21.4c1,2,1.9,4,2.6,6.1c-0.9,0.9-1.9,1.8-2.8,2.8c-3.4,0-6.8,0-10.2,0c-0.4-0.7-1.2-1.1-2-0.8
		c-0.2-0.5-0.5-1-0.8-1.5c0.3-0.2,0.6-0.5,0.9-0.8c2.1,0,4.2,0,6.3,0c0.3,0,0.5-0.2,0.7-0.4C71.9,24.9,73.7,23.2,75.4,21.4z"/>
        <path class="st0" d="M4.2,22.1c0.8,0.8,1.6,1.6,2.4,2.4c0.2,0.2,0.3,0.3,0.6,0.3c1.6,0,3.1,0,4.7,0c1.3,1.3,2.6,2.6,3.8,3.9
		c-0.1,0.4-0.1,0.8,0.1,1.2c-0.4,0.2-0.7,0.5-0.9,0.8c-1.8,0-3.6,0-5.3,0c-1.8-1.7-3.5-3.5-5.2-5.2c0.2-0.8-0.1-1.6-0.8-2
		C3.8,23,4,22.6,4.2,22.1z"/>
        <path class="st0" d="M2.3,26.5c0.3,0,0.7,0,1,0c1.5,1.5,3.1,3.1,4.6,4.6c0.4,0.3,0.7,0.8,1.2,1c1.9,0,3.9,0,5.8,0
		c0.2,0.2,0.3,0.4,0.5,0.5c-0.6,0.1-1.1,0.4-1.4,0.9c-4.5,0-9,0-13.4,0C0.9,31.2,1.5,28.8,2.3,26.5z"/>
        <path class="st0" d="M76.2,31.4c0.8-0.8,1.5-1.6,2.3-2.3c0.4,1.3,0.7,2.6,0.9,4c-4.4,0-8.8,0-13.2,0c-0.2,0-0.4-0.2-0.5-0.4
		c-0.3-0.3-0.8-0.4-1.2-0.4c0.2-0.2,0.3-0.4,0.5-0.6c3.5,0,7,0,10.5,0C75.8,31.8,76,31.6,76.2,31.4z"/>
        <path class="st0" d="M66.2,34.5c4.5,0,8.9,0,13.4,0c0.1,1.1,0.3,2.2,0.3,3.4c-2.7,0-5.4,0-8,0c-0.4,0-0.9-0.1-1.3,0.1
		c-0.5,0.4-1,0.9-1.4,1.4c-0.8,0-1.6,0-2.4,0c-0.3-0.5-0.8-0.9-1.5-1c-0.1-1-0.2-1.9-0.3-2.9C65.5,35.4,66,35,66.2,34.5z"/>
        <path class="st0" d="M0.3,35c4.5,0,9.1,0,13.6,0c0.3,0.5,0.9,0.7,1.2,1.1c-0.7,0-1.4,0.3-1.7,0.9c-2.5,0-4.9,0-7.4,0
		c-0.3-0.5-0.8-0.9-1.3-0.9c-0.9-0.1-1.7,0.7-1.7,1.5c-0.1,0.9,0.8,1.7,1.7,1.6c0.6,0,1.1-0.4,1.4-0.9c2.5,0,5,0,7.4,0
		c0.1,0.1,0.2,0.3,0.3,0.4c-0.1,0.1-0.2,0.3-0.3,0.4c-0.9,0-1.8,0-2.7,0c-0.2,0-0.4,0.1-0.6,0.2c-0.4,0.4-0.8,0.9-1.3,1.3
		c-2.9,0-5.9,0-8.8,0C0,38.8,0.1,36.9,0.3,35z"/>
        <path class="st0" d="M69.7,40.7c0.6-0.4,1-1,1.6-1.5c2.9,0,5.8,0,8.7,0c0,1.9-0.1,3.9-0.3,5.8c-4.5,0-9.1,0-13.6,0
		c-0.3-0.4-0.7-0.7-1.1-0.9c-0.2-0.3,0.3-0.2,0.5-0.3c0.5,0,0.9-0.5,1.2-0.9c2.5,0,4.9,0,7.4,0c0.3,0.4,0.7,0.8,1.2,0.9
		c0.9,0.2,1.9-0.6,1.8-1.6c0-1-0.9-1.8-1.9-1.6c-0.5,0.1-0.9,0.5-1.2,0.9c-2.5,0-4.9,0-7.4,0c-0.1-0.1-0.2-0.3-0.3-0.4
		c0.1-0.1,0.2-0.3,0.3-0.4C67.6,40.7,68.7,40.8,69.7,40.7z"/>
        <path class="st0" d="M9.4,42.1c0.6-0.4,1-1,1.5-1.5c0.8,0,1.6,0,2.4,0c0.3,0.5,0.8,0.9,1.5,1c0.1,1,0.2,1.9,0.3,2.8
		c-0.6,0.1-1.1,0.5-1.3,1.1c-4.5,0-8.9,0-13.4,0c-0.1-1.1-0.3-2.2-0.3-3.4c2.7,0,5.4,0,8.1,0C8.5,42.2,9,42.2,9.4,42.1z"/>
        <path class="st0" d="M66,46.4c4.5,0,9,0,13.4,0c-0.4,2.4-1,4.8-1.8,7.1c-0.3,0-0.7,0-1,0c-1.8-1.8-3.6-3.6-5.4-5.4
		c-0.2-0.2-0.4-0.3-0.6-0.2c-1.8,0-3.7,0-5.5,0c-0.1-0.2-0.3-0.4-0.4-0.5C65.2,47.2,65.7,46.9,66,46.4z"/>
        <path class="st0" d="M0.6,46.9c4.5,0,8.9,0,13.4,0c0.4,0.5,0.9,0.8,1.6,0.7c-0.2,0.2-0.3,0.4-0.5,0.6c-3.4,0-6.8,0-10.2,0
		c-0.3,0-0.7,0-0.9,0.2c-0.8,0.8-1.6,1.6-2.4,2.4C1.2,49.6,0.8,48.3,0.6,46.9z"/>
        <path class="st0" d="M65.1,49.3c1.8,0,3.6,0,5.4,0c1.7,1.7,3.5,3.5,5.2,5.2c-0.2,0.8,0.1,1.6,0.8,2c-0.2,0.5-0.4,0.9-0.7,1.4
		c-0.8-0.8-1.6-1.6-2.4-2.4c-0.2-0.2-0.4-0.3-0.7-0.3c-1.5,0-3,0-4.6,0c-1.3-1.3-2.6-2.6-3.9-3.9c0.1-0.4,0-0.8-0.1-1.2
		C64.6,49.9,64.9,49.6,65.1,49.3z"/>
        <path class="st0" d="M2,52.4c0.9-0.9,1.9-1.9,2.8-2.8c3.4,0,6.8,0,10.2,0c0.4,0.7,1.2,1.1,2,0.8c0.2,0.5,0.5,1,0.7,1.5
		c-0.4,0.2-0.6,0.6-0.9,0.8c-2.1,0-4.1,0-6.2,0c-0.4,0-0.7,0.4-1,0.6c-1.7,1.7-3.4,3.4-5.1,5.1C3.5,56.6,2.7,54.6,2,52.4z"/>
        <path class="st0" d="M63,52.3c0.3-0.1,0.4,0.2,0.6,0.3c1.2,1.2,2.4,2.4,3.5,3.6c0.2,0.2,0.4,0.4,0.7,0.4c1.6,0,3.2,0,4.7,0
		c0.9,0.9,1.7,1.7,2.6,2.6c-1.3,2.4-2.9,4.6-4.6,6.7c0-1.5,0-2.9,0-4.4c0.1-0.5-0.4-0.8-0.7-1.1c-2.3-2.3-4.6-4.5-6.8-6.8
		C63.1,53.2,63.1,52.7,63,52.3z"/>
        <path class="st0" d="M10.6,54.5c0.1-0.1,0.3-0.3,0.5-0.3c1.9,0,3.9,0,5.8,0c0.3,0.4,0.7,0.8,1.3,0.9c0.5,0.1,0.9-0.2,1.4-0.4
		c-0.3,0.3-0.5,0.6-0.7,1c-1.2,0-2.3-0.1-3.5,0.1c-1.5,1.3-2.8,2.8-4.3,4.2c-0.9-0.3-2,0.2-2.2,1.2c-0.3,1.1,0.8,2.1,1.8,1.9
		c0.9-0.1,1.5-1.2,1.3-2c1.2-1.2,2.4-2.4,3.5-3.6c0.2-0.1,0.3-0.4,0.5-0.3c1,0,1.9,0,2.9,0c0.3,0.4,0.8,0.6,1.3,0.8
		c-2.2,2.2-4.4,4.4-6.7,6.7c-0.2,0.2-0.4,0.4-0.6,0.6c-1.4,0-2.7,0-4.1,0c-1.4-1.6-2.5-3.4-3.6-5.3C7,58.1,8.8,56.3,10.6,54.5z"/>
        <path class="st0" d="M60.7,54.4c0.4,0.1,0.8,0.2,1.2,0.1c2.4,2.4,4.8,4.8,7.2,7.2c0,1.9,0,3.8,0,5.7c-0.7,0.9-1.7,1.7-2.6,2.5
		c0-1.1,0-2.1,0-3.2c0-0.3-0.2-0.5-0.4-0.7c-2.3-2.3-4.7-4.7-7-7c0.3-0.6,0.2-1.4-0.2-1.9c0.4,0.2,0.8,0.2,1.1,0.3
		c1.2,1.1,2.3,2.3,3.4,3.4c-0.3,0.9,0.2,1.9,1.2,2.1c1,0.3,2.2-0.7,2-1.8c-0.1-1-1.2-1.6-2.1-1.3c-1.1-1.1-2.2-2.2-3.2-3.2
		C61.6,55.8,61.4,54.9,60.7,54.4z"/>
        <path class="st0" d="M21,59.2c0.6,0.3,1.4,0.2,1.9-0.2c-0.2,0.4-0.3,0.8-0.3,1.2c-1.1,1.1-2.3,2.3-3.4,3.4
		c-0.8-0.2-1.8,0.2-2.1,1.1c-0.4,1,0.6,2.2,1.7,2.1c1-0.1,1.7-1.2,1.4-2.1c1.1-1.1,2.2-2.2,3.3-3.3c0.7,0.4,1.6,0.1,2.1-0.5
		c-0.1,0.4-0.2,0.8-0.1,1.2c-2.4,2.4-4.8,4.8-7.2,7.2c-1.7,0-3.5,0-5.2,0c-0.2,0-0.5,0-0.6-0.2c-0.8-0.8-1.6-1.6-2.3-2.4
		c1.2,0,2.3,0,3.5,0c0.4-0.2,0.6-0.5,0.9-0.8C16.7,63.5,18.8,61.3,21,59.2z"/>
        <path class="st0" d="M57.1,61c0.3-0.4,0.6-0.8,0.8-1.3c0.3,0.2,0.6,0.5,0.9,0.8c2.1,2.1,4.2,4.2,6.2,6.2c0.1,0.1,0.2,0.3,0.2,0.4
		c0,1.3,0,2.6,0,3.9c-1.7,1.3-3.4,2.5-5.3,3.6c-1.8-1.8-3.5-3.6-5.3-5.3c-0.1-0.1-0.3-0.3-0.3-0.5c0-2,0-3.9,0-5.9
		c0.5-0.3,0.8-0.8,0.8-1.4c0.1-0.5-0.2-0.9-0.4-1.3c0.3,0.3,0.7,0.5,1,0.8c0,1.1,0,2.1,0,3.2c0,0.3,0.2,0.5,0.4,0.7
		c1.3,1.3,2.5,2.5,3.8,3.8c-0.2,0.8,0,1.7,0.8,2c1,0.6,2.3-0.2,2.3-1.3c0.1-1.1-1-2-2.1-1.7c-1.3-1.3-2.6-2.6-3.9-3.9
		C57.1,63,57,62,57.1,61z"/>
        <path class="st0" d="M50.5,63c0.5-0.2,1-0.5,1.5-0.8c0.2,0.4,0.5,0.7,0.8,0.9c0,2.1,0,4.2,0,6.3c0,0.3,0.2,0.5,0.4,0.7
		c1.8,1.8,3.6,3.6,5.4,5.3c-2,1-4,1.9-6.2,2.6c-0.9-0.9-1.9-1.8-2.8-2.8c0-3.4,0-6.8,0-10.2C50.4,64.6,50.7,63.8,50.5,63z"/>
        <path class="st0" d="M19.2,70.2c2.4-2.4,4.8-4.8,7.2-7.2c0.4,0.1,0.9,0.1,1.4,0c-0.1,0.1-0.2,0.3-0.2,0.4c-1.3,1.4-2.8,2.7-4.1,4.1
		c-0.1,1.7,0,3.3-0.1,5c-0.9,0.9-1.7,1.7-2.6,2.6c-2.4-1.3-4.6-2.9-6.7-4.6c1.5,0,2.9,0,4.4,0C18.8,70.5,19,70.4,19.2,70.2z"/>
        <path class="st0" d="M28.7,64.2c0.4,0.1,0.8,0.1,1.2-0.1c0.2,0.4,0.5,0.7,0.8,0.9c0,1.8,0,3.5,0,5.3c-1.7,1.8-3.5,3.5-5.2,5.3
		c-0.8-0.2-1.6,0.1-2,0.8c-0.5-0.2-0.9-0.4-1.4-0.7c0.8-0.8,1.7-1.7,2.5-2.5c0.2-0.2,0.2-0.6,0.2-0.9c0-1.4,0-2.9,0-4.3
		C26.1,66.8,27.4,65.5,28.7,64.2z"/>
        <path class="st0" d="M47.7,64.5c0.2,0.2,0.4,0.4,0.6,0.5c0,3.5,0,7,0,10.6c0,0.3,0.2,0.5,0.4,0.7c0.8,0.7,1.5,1.5,2.3,2.2
		c-1.3,0.4-2.7,0.7-4,0.9c0-4.4,0-8.8,0-13.1c0-0.3,0.2-0.4,0.4-0.6C47.6,65.3,47.7,64.9,47.7,64.5z"/>
        <path class="st0" d="M32.2,65.1c0.1-0.2,0.3-0.3,0.5-0.5c0.1,0.6,0.4,1.1,0.9,1.4c0,4.5,0,9,0,13.4c-2.4-0.4-4.8-1-7.1-1.8
		c0-0.3,0-0.7,0-1c1.8-1.8,3.6-3.6,5.3-5.3c0.2-0.2,0.3-0.4,0.3-0.6C32.2,68.8,32.1,67,32.2,65.1z"/>
        <path class="st0" d="M35.9,64.9c0.1,0,0.2,0,0.2,0c0,0.7,0.3,1.3,0.9,1.7c0,2.5,0,4.9,0,7.4c-0.5,0.3-0.9,0.8-0.9,1.4
		c-0.1,1,0.9,1.8,1.8,1.6c0.9-0.1,1.6-1.1,1.3-1.9c-0.1-0.5-0.5-0.8-0.9-1.1c0-2.5,0-4.9,0-7.4c0.1-0.1,0.3-0.2,0.4-0.3
		c0.1,0.1,0.3,0.2,0.4,0.3c0,0.8,0,1.7,0,2.5c0,0.2,0,0.5,0.2,0.7c0.4,0.5,0.9,0.9,1.3,1.4c0,2.9,0,5.9,0,8.8
		c-1.9,0-3.8-0.1-5.8-0.3c0-4.6,0-9.1,0-13.7C35.4,65.8,35.7,65.4,35.9,64.9z"/>
        <path class="st0" d="M41.6,65.2c1-0.1,1.9-0.2,2.8-0.3c0.1,0.6,0.5,1.1,1.1,1.4c0,4.5,0,8.9,0,13.4c-1.1,0.2-2.3,0.3-3.4,0.3
		c0-2.9,0-5.9,0-8.8c0-0.2,0-0.5-0.2-0.7c-0.4-0.5-0.9-0.9-1.3-1.3c0-0.8,0-1.6,0-2.4C41.2,66.3,41.6,65.8,41.6,65.2z"/>
    </symbol>
</svg>
